# AST/ASF file generated using VICON BodyLanguage
# -----------------------------------------------
:version 1.10
:name VICON
:units
  mass 1.0
  length 0.45
  angle deg
:documentation
   .ast/.asf automatically generated from VICON data using
   VICON BodyBuilder and BodyLanguage model FoxedUp or BRILLIANT.MOD
:root
   order TX TY TZ RX RY RZ
   axis XYZ
   position 0 0 0  
   orientation 0 0 0 
:bonedata
  begin
     id 1 
     name lhipjoint
     direction 0.61886 -0.69539 0.365302 
     length 2.20474 
     axis 0 0 0  XYZ
  end
  begin
     id 2 
     name lfemur
     direction 0.34202 -0.939693 0  
     length 6.65149  
     axis 0 0 20  XYZ
    dof rx ry rz
    limits (-160.0 20.0)
           (-70.0 70.0)
           (-60.0 70.0)
  end
  begin
     id 3 
     name ltibia
     direction 0.34202 -0.939693 0   
     length 6.35814   
     axis 0 0 20   XYZ
    dof rx
    limits (-10.0 170.0)
  end
  begin
     id 4 
     name lfoot
     direction 0.101224 -0.278109 0.955201   
     length 2.18766   
     axis -90 7.62852e-016 20   XYZ
    dof rx rz
    limits (-45.0 90.0)
           (-70.0 20.0)
  end
  begin
     id 5 
     name ltoes
     direction 1.53524e-011 -4.21877e-011 1   
     length 1.09206   
     axis -90 7.62852e-016 20   XYZ
    dof rx
    limits (-90.0 20.0)
  end
  begin
     id 6 
     name rhipjoint
     direction -0.600207 -0.708087 0.371972   
     length 2.1652  
     axis 0 0 0  XYZ 
  end
  begin
     id 7 
     name rfemur
     direction -0.34202 -0.939693 0   
     length 6.54691   
     axis 0 0 -20   XYZ
    dof rx ry rz
    limits (-160.0 20.0)
           (-70.0 70.0)
           (-70.0 60.0)
  end
  begin
     id 8 
     name rtibia
     direction -0.34202 -0.939693 0   
     length 6.37474   
     axis 0 0 -20   XYZ
    dof rx
    limits (-10.0 170.0)
 end
 begin
     id 9 
     name rfoot
     direction -0.111266 -0.3057 0.945604   
     length 2.00903  
     axis -90 -7.62852e-016 -20   XYZ
    dof rx rz
    limits (-45.0 90.0)
           (-20.0 70.0)
  end
  begin
     id 10 
     name rtoes
     direction -1.5362e-011 -4.21913e-011 1   
     length 1.00221   
     axis -90 -7.62852e-016 -20   XYZ
    dof rx
    limits (-90.0 20.0)
  end
  begin
     id 11 
     name lowerback
     direction -0.0224561 0.999731 -0.00577314   
     length 2.10409   
     axis 0 0 0   XYZ
    dof rx ry rz
    limits (-20.0 45.0)
           (-30.0 30.0)
           (-30.0 30.0)
  end
  begin
     id 12 
     name upperback
     direction 0.0213126 0.999185 -0.0342817   
     length 2.09783   
     axis 0 0 0   XYZ
    dof rx ry rz
    limits (-20.0 45.0)
           (-30.0 30.0)
           (-30.0 30.0)
  end
  begin
     id 13 
     name thorax
     direction 0.0312356 0.999036 -0.0308451   
     length 2.09788   
     axis 0 0 0   XYZ
    dof rx ry rz
    limits (-20.0 45.0)
           (-30.0 30.0)
           (-30.0 30.0)
  end
  begin
     id 14 
     name lowerneck
     direction -0.0114419 0.996481 0.0830329   
     length 1.38575   
     axis 0 0 0   XYZ
    dof rx ry rz
    limits (-20.0 45.0)
           (-30.0 30.0)
           (-30.0 30.0)
  end
  begin
     id 15 
     name upperneck
     direction -0.0075675 0.996187 -0.0869092   
     length 1.39401   
     axis 0 0 0   XYZ
    dof rx ry rz
    limits (-20.0 45.0)
           (-30.0 30.0)
           (-30.0 30.0)
  end
  begin
     id 16
     name head
     direction -0.00222073 0.999264 -0.0382974  
     length 1.3964  
     axis 0 0 0   XYZ
    dof rx ry rz
    limits (-20.0 45.0)
           (-30.0 30.0)
           (-30.0 30.0)
  end
  begin
     id 17 
     name lclavicle
     direction 0.965962 0.222138 0.132556  
     length 2.81514  
     axis 0 0 0   XYZ
    dof ry rz
    limits (-20.0 10.0)
           (0.0 20.0)
  end
  begin
     id 18 
     name lhumerus
     direction 1 -4.48972e-011 7.03471e-018   
     length 4.47366   
     axis 180 -30 -90   XYZ
    dof rx ry rz
    limits (-60.0 90.0)
           (-90.0 90.0)
           (-90.0 90.0)
  end
  begin
     id 19
     name lradius
     direction 1 -4.48951e-011 -6.22192e-028   
     length 3.19948   
     axis 180 -30 -90   XYZ
    dof rx
    limits (-10.0 170.0)
  end
  begin
     id 20
     name lwrist
     direction 1 -4.48967e-011 -1.24264e-027   
     length 1.59974   
     axis 1.40095e-015 90 90   XYZ
    dof ry
    limits (-180.0 0.0)
 end
  begin
     id 21 
     name lhand
     direction 1 -4.4897e-011 -2.48528e-027   
     length 0.492667   
     axis 1.58582e-015 90 90   XYZ
    dof rx rz
    limits (-90.0 90.0)
           (-45.0 45.0)
  end
  begin
     id 22 
     name lfingers
     direction 1 -4.48996e-011 -4.97056e-027   
     length 0.397201   
     axis 3.17164e-015 90 90   XYZ
    dof rx
    limits (0.0 90.0)
  end
  begin
     id 23
     name lthumb
     direction 0.707107 -6.34981e-011 0.707107   
     length 0.570303   
     axis -90 45 2.85299e-015   XYZ
    dof rx rz
    limits (-45.0 45.0)
           (-45.0 45.0)
  end
  begin
     id 24 
     name rclavicle
     direction -0.961164 0.229034 0.153972   
     length 3.09348  
     axis 0 0 0   XYZ 
    dof ry rz
    limits (-10.0 20.0)
           (-20.0 0.0)
  end
  begin
     id 25 
     name rhumerus
     direction -1 -4.48971e-011 -9.06263e-028  
     length 4.3269   
     axis 180 30 90   XYZ
    dof rx ry rz
    limits (-90.0 60.0)
           (-90.0 90.0)
           (-90.0 90.0)
  end
  begin
     id 26 
     name rradius
     direction -1 -4.48953e-011 1.44659e-027   
     length 3.1896   
     axis 180 30 90   XYZ
    dof rx
    limits (-10.0 170.0)
  end
  begin
     id 27 
     name rwrist
     direction -1 -4.48988e-011 -1.24264e-027   
     length 1.5948   
     axis 1.40095e-015 -90 -90   XYZ
    dof ry
    limits (-180.0 0.0)
  end
  begin
     id 28
     name rhand
     direction -1 -4.49033e-011 -2.48528e-027   
     length 0.464496   
     axis 1.58582e-015 -90 -90   XYZ
    dof rx rz
    limits (-90.0 90.0)
           (-45.0 45.0)
  end
  begin
     id 29
     name rfingers
     direction -1 -4.48905e-011 -4.97056e-027   
     length 0.374489   
     axis 3.17164e-015 -90 -90   XYZ
    dof rx
    limits (0.0 90.0)
  end
  begin
     id 30
     name rthumb
     direction -0.707107 -6.34909e-011 0.707107   
     length 0.537693   
     axis -90 -45 -2.85299e-015   XYZ
    dof rx rz
    limits (-45.0 45.0)
           (-45.0 45.0)
  end
:hierarchy
  begin
    root lhipjoint rhipjoint lowerback
    lhipjoint lfemur
    lfemur ltibia
    ltibia lfoot
    lfoot ltoes
    rhipjoint rfemur
    rfemur rtibia
    rtibia rfoot
    rfoot rtoes
    lowerback upperback
    upperback thorax
    thorax lowerneck lclavicle rclavicle
    lowerneck upperneck
    upperneck head
    lclavicle lhumerus
    lhumerus lradius
    lradius lwrist
    lwrist lhand lthumb
    lhand lfingers
    rclavicle rhumerus
    rhumerus rradius
    rradius rwrist
    rwrist rhand rthumb
    rhand rfingers
  end

#!OML:ASF G:\acrobat\cartwheel_test 2\Patient 1\Session 2\acrobat4.ASF
:FULLY-SPECIFIED
:DEGREES
126
root 8.33607 14.6886 2.3644 -6.07548 -2.85404 2.15195
lowerback -0.136116 -0.16826 -2.80876
upperback 3.51653 -0.225608 1.91243
thorax 3.72042 -0.235078 3.54424
lowerneck -13.2345 -1.39107 -1.2134
upperneck 9.65069 -1.56672 -0.627832
head 5.06787 -0.856139 -0.127122
rclavicle 5.56597e-015 -3.18055e-015
rhumerus 48.0911 -0.841401 -63.7001
rradius 18.7346
rwrist 27.4412
rhand -18.4448 -20.7026
rfingers 7.12502
rthumb 7.84102 -50.5372
lclavicle 5.56597e-015 -3.18055e-015
lhumerus 40.7638 -10.5419 40.4362
lradius 28.8661
lwrist 9.08545
lhand -27.2445 0.995618
lfingers 7.12502
lthumb -0.656243 30.9744
rfemur -13.9597 -1.20997 17.2776
rtibia 50.0326
rfoot -20.6486 -17.81
rtoes -15.4201
lfemur -14.0381 5.9383 -18.9198
ltibia 50.5806
lfoot -26.0475 10.4934
ltoes -13.8661
127
root 8.33778 14.687 2.35645 -6.02207 -2.93446 2.05488
lowerback -0.0655295 -0.166719 -2.73273
upperback 3.50883 -0.228514 1.96972
thorax 3.67245 -0.234201 3.5607
lowerneck -13.4642 -1.31252 -1.09476
upperneck 9.75297 -1.45175 -0.843289
head 5.13494 -0.811253 -0.206352
rclavicle 7.15625e-015 7.15625e-015
rhumerus 48.1785 -1.01318 -63.9905
rradius 18.6937
rwrist 27.9203
rhand -17.9268 -20.3688
rfingers 7.12502
rthumb 8.34103 -50.1841
lclavicle 7.15625e-015 7.15625e-015
lhumerus 40.7609 -10.4322 40.4929
lradius 28.8886
lwrist 9.02841
lhand -27.1197 0.825265
lfingers 7.12502
lthumb -0.535659 30.8043
rfemur -14.0557 -1.07442 17.4184
rtibia 50.0407
rfoot -20.6066 -17.8881
rtoes -15.4133
lfemur -14.1509 5.98224 -18.816
ltibia 50.6286
lfoot -26.0142 10.5181
ltoes -13.8805
128
root 8.3401 14.6876 2.34794 -5.9475 -2.98756 2.0534
lowerback 0.00309671 -0.192065 -2.76403
upperback 3.45692 -0.263975 1.99745
thorax 3.58312 -0.250972 3.60589
lowerneck -13.2733 -1.15351 -1.06754
upperneck 9.58642 -1.24085 -0.895409
head 5.05089 -0.709551 -0.207646
rclavicle 1.01877e-015 -8.74653e-015
rhumerus 48.0318 0.266465 -62.6199
rradius 19.3827
rwrist 26.2924
rhand -18.297 -27.3384
rfingers 7.12502
rthumb 7.98368 -57.1677
lclavicle 1.01877e-015 -8.74653e-015
lhumerus 40.6374 -10.3483 40.5115
lradius 28.9759
lwrist 9.01244
lhand -26.9666 0.942845
lfingers 7.12502
lthumb -0.387873 30.9222
rfemur -14.2113 -0.95355 17.4336
rtibia 50.0717
rfoot -20.5854 -17.8969
rtoes -15.517
lfemur -14.2854 5.9663 -18.8379
ltibia 50.6772
lfoot -26.0145 10.5965
ltoes -14.0923
129
root 8.34388 14.6894 2.34172 -5.87879 -3.05524 2.10366
lowerback 0.0529304 -0.195456 -2.803
upperback 3.383 -0.268327 1.98657
thorax 3.47874 -0.251069 3.61625
lowerneck -12.4808 -0.926484 -1.06504
upperneck 8.98993 -0.95952 -0.847451
head 4.73513 -0.563678 -0.163948
rclavicle 3.21783e-015 2.14687e-014
rhumerus 47.9571 0.148162 -62.8312
rradius 19.1179
rwrist 25.6911
rhand -18.5354 -21.8706
rfingers 7.12502
rthumb 7.75358 -51.7085
lclavicle 3.21783e-015 2.14687e-014
lhumerus 40.5268 -10.3698 40.5124
lradius 29.0607
lwrist 9.02589
lhand -27.0134 1.12357
lfingers 7.12502
lthumb -0.432983 31.1029
rfemur -14.3905 -0.865174 17.3709
rtibia 50.1241
rfoot -20.6792 -17.8372
rtoes -15.4113
lfemur -14.4025 5.93229 -18.931
ltibia 50.7184
lfoot -26.0439 10.7096
ltoes -14.1873
130
root 8.34827 14.6881 2.33684 -5.87981 -3.12485 2.15898
lowerback 0.1507 -0.185726 -2.81714
upperback 3.34727 -0.256374 1.96145
thorax 3.38524 -0.242809 3.59843
lowerneck -13.1014 -1.07502 -0.941384
upperneck 9.59665 -1.14631 -1.01557
head 5.02428 -0.666625 -0.256814
rclavicle -2.23633e-015 1.27222e-014
rhumerus 47.8227 0.897848 -61.9979
rradius 19.7073
rwrist 25.1349
rhand -17.7841 -27.4214
rfingers 7.12502
rthumb 8.47866 -57.2312
lclavicle -2.23633e-015 1.27222e-014
lhumerus 40.4878 -10.4423 40.4439
lradius 29.1346
lwrist 9.08742
lhand -27.2517 1.29779
lfingers 7.12502
lthumb -0.663147 31.2765
rfemur -14.479 -0.794615 17.3064
rtibia 50.1828
rfoot -20.685 -17.8321
rtoes -15.3226
lfemur -14.4314 5.89405 -19.0188
ltibia 50.749
lfoot -26.084 10.7307
ltoes -13.9266
131
root 8.35242 14.6848 2.33237 -5.85552 -3.1651 2.18042
lowerback 0.196029 -0.200999 -2.81486
upperback 3.34458 -0.277714 1.95693
thorax 3.35856 -0.252818 3.59188
lowerneck -13.2449 -1.09523 -0.920708
upperneck 9.64654 -1.16837 -1.06672
head 5.06304 -0.680769 -0.279032
rclavicle -4.09993e-015 -1.74931e-014
rhumerus 47.8604 1.18661 -61.5611
rradius 19.5389
rwrist 24.114
rhand -17.8466 -24.3268
rfingers 7.12502
rthumb 8.41839 -54.139
lclavicle -4.09993e-015 -1.74931e-014
lhumerus 40.4863 -10.45 40.3514
lradius 29.1817
lwrist 9.19699
lhand -27.4304 1.45285
lfingers 7.12502
lthumb -0.835739 31.431
rfemur -14.54 -0.760619 17.282
rtibia 50.2323
rfoot -20.5126 -17.8775
rtoes -15.5872
lfemur -14.4746 5.82669 -19.0705
ltibia 50.778
lfoot -26.1357 10.6935
ltoes -13.5881
132
root 8.35569 14.685 2.32785 -5.79125 -3.19336 2.16592
lowerback 0.189441 -0.209148 -2.78442
upperback 3.33516 -0.289275 1.9671
thorax 3.35326 -0.257642 3.58488
lowerneck -13.2117 -1.06984 -0.890667
upperneck 9.56275 -1.13173 -1.14206
head 5.0309 -0.666395 -0.303838
rclavicle -1.09332e-014 -3.97569e-015
rhumerus 47.8299 1.74738 -60.7591
rradius 19.696
rwrist 22.9827
rhand -17.8167 -24.7549
rfingers 7.12502
rthumb 8.44727 -54.566
lclavicle -1.09332e-014 -3.97569e-015
lhumerus 40.5055 -10.4547 40.3425
lradius 29.2299
lwrist 9.35162
lhand -27.4974 1.4999
lfingers 7.12502
lthumb -0.900521 31.4777
rfemur -14.6306 -0.729865 17.2926
rtibia 50.2681
rfoot -20.3636 -17.8804
rtoes -15.7457
lfemur -14.5644 5.77552 -19.0825
ltibia 50.8004
lfoot -26.145 10.7383
ltoes -13.5303
133
root 8.35994 14.6875 2.32231 -5.78397 -3.23541 2.18316
lowerback 0.264821 -0.208064 -2.77184
upperback 3.34635 -0.290012 1.97903
thorax 3.32233 -0.257473 3.59026
lowerneck -13.1154 -1.06576 -0.98292
upperneck 9.3821 -1.11757 -1.10099
head 4.9596 -0.658769 -0.273583
rclavicle -9.61621e-015 -7.95139e-015
rhumerus 47.7683 1.65232 -61.0516
rradius 20.1297
rwrist 23.692
rhand -16.9436 -28.0007
rfingers 7.12502
rthumb 9.28972 -57.7761
lclavicle -9.61621e-015 -7.95139e-015
lhumerus 40.4929 -10.4359 40.3706
lradius 29.3177
lwrist 9.51951
lhand -27.5207 1.40251
lfingers 7.12502
lthumb -0.923036 31.3803
rfemur -14.7158 -0.65328 17.2566
rtibia 50.3051
rfoot -20.4355 -17.8043
rtoes -15.5266
lfemur -14.5973 5.75946 -19.1266
ltibia 50.8104
lfoot -26.1044 10.8374
ltoes -13.6237
134
root 8.36544 14.6883 2.315 -5.7756 -3.30121 2.22514
lowerback 0.38828 -0.226346 -2.78588
upperback 3.35882 -0.317176 1.98817
thorax 3.26803 -0.270852 3.60719
lowerneck -12.9048 -1.02129 -1.16471
upperneck 8.98189 -1.05271 -0.929596
head 4.80253 -0.619074 -0.182861
rclavicle -5.24295e-015 5.56597e-015
rhumerus 47.8309 0.828117 -62.275
rradius 19.7175
rwrist 24.1897
rhand -16.9626 -21.5173
rfingers 7.12502
rthumb 9.27144 -51.2935
lclavicle -5.24295e-015 5.56597e-015
lhumerus 40.4195 -10.3996 40.2787
lradius 29.4362
lwrist 9.81378
lhand -27.6329 1.28293
lfingers 7.12502
lthumb -1.03141 31.2602
rfemur -14.8345 -0.571291 17.1891
rtibia 50.3547
rfoot -20.5939 -17.7752
rtoes -15.4231
lfemur -14.6361 5.77411 -19.2015
ltibia 50.8153
lfoot -26.0691 10.877
ltoes -13.614
